<svg width="106" height="106" viewBox="0 0 106 106" fill="none" xmlns="http://www.w3.org/2000/svg">
<g clip-path="url(#clip0)">
<g filter="url(#filter0_dd)">
<circle cx="31" cy="38" r="28" fill="url(#paint0_linear)"/>
</g>
<g filter="url(#filter1_dd)">
<path d="M21.8965 44.8C19.2923 44.8 16.8509 45.2844 14.5723 46.2531C12.2936 47.2219 10.2917 48.5297 8.56641 50.1766C6.84115 51.8234 5.49023 53.7932 4.51367 56.0859C3.53711 58.3786 3.03255 60.8167 3 63.4C3 65.9833 3.48828 68.3891 4.46484 70.6172C5.44141 72.8453 6.77605 74.8151 8.46875 76.5266C10.1615 78.238 12.1634 79.5781 14.4746 80.5469C16.7858 81.5156 19.2109 82 21.75 82H78C81.4505 82 84.6895 81.3542 87.7168 80.0625C90.7441 78.7708 93.3971 77.0109 95.6758 74.7828C97.9544 72.5547 99.7448 69.9229 101.047 66.8875C102.349 63.8521 103 60.6229 103 57.2C103 53.7771 102.349 50.5641 101.047 47.5609C99.7448 44.5578 97.9707 41.926 95.7246 39.6656C93.4785 37.4052 90.8255 35.6292 87.7656 34.3375C84.7057 33.0458 81.4505 32.4 78 32.4C76.5026 32.4 74.9889 32.5453 73.459 32.8359C72.1569 30.8339 70.6595 29.0417 68.9668 27.4594C67.2741 25.8771 65.4023 24.5208 63.3516 23.3906C61.3008 22.2604 59.1523 21.4208 56.9062 20.8719C54.6602 20.3229 52.3164 20.0323 49.875 20C46.2617 20 42.86 20.6297 39.6699 21.8891C36.4798 23.1484 33.6315 24.876 31.125 27.0719C28.6185 29.2677 26.584 31.8995 25.0215 34.9672C23.459 38.0349 22.4173 41.3125 21.8965 44.8Z" fill="url(#paint1_linear)"/>
</g>
<path d="M102.909 55.7666C102.909 67.5162 91.005 74.7058 79.2184 74.7058C67.4319 74.7058 57.877 65.1808 57.877 53.4312C57.877 41.6817 67.4319 32.1567 79.2184 32.1567C91.005 32.1567 102.909 44.0171 102.909 55.7666Z" fill="url(#paint2_linear)"/>
<path d="M72.9756 39.3517C67.8865 39.3517 63.3506 41.2606 59.8103 44.2924C59.8103 44.2924 59.6997 44.2924 59.6997 44.4047C61.8017 39.9131 65.4526 36.2076 69.8779 34.0742C66.1164 29.6949 60.6954 27 54.5 27C43.3261 27 34.3649 36.2076 34.3649 47.3242C34.3649 49.1208 34.5862 50.9174 35.0287 52.6017C33.4799 52.0403 31.8204 51.7034 30.0503 51.7034C22.306 51.7034 16 58.1038 16 65.8517C16 73.5996 22.306 80 30.0503 80C30.1609 80 30.2716 80 30.2716 80H72.533C72.6437 80 72.7543 80 72.8649 80C84.0388 80 93 70.7924 93 59.6758C93 48.5593 84.0388 39.3517 72.9756 39.3517Z" fill="url(#paint3_linear)"/>
<g filter="url(#filter2_d)">
<path d="M80.5658 64.2185L78.2108 62.9076L76.7773 62.1008L78.1084 61.2941H78.2108L80.5658 59.8824C81.8969 59.0756 82.4089 57.3613 81.5897 56.0504C80.7706 54.7395 79.0299 54.2353 77.6988 55.042L75.3438 56.3529L73.8079 57.1597V55.5462V55.4454V52.8235C73.8079 51.3109 72.4768 50 70.9409 50C69.5074 50 68.1763 51.3109 68.1763 52.8235V55.4454V57.1597L66.7428 56.3529L64.3878 54.9412C63.0567 54.1345 61.316 54.6387 60.4969 55.9496C59.6777 57.2605 60.1897 58.9748 61.5208 59.7815L63.8758 61.0924L65.3093 61.8992L63.7734 62.7059L61.4184 64.0168C60.0873 64.8235 59.5753 66.5378 60.3945 67.8487C61.2136 69.1597 62.9543 69.6639 64.2854 68.8571L66.6404 67.5462C66.6404 67.5462 66.6404 67.5462 66.7428 67.4454L68.0739 66.6387V68.3529V71.1765C68.0739 72.6891 69.405 74 70.9409 74C72.4768 74 73.8079 72.6891 73.8079 71.1765V68.4538V68.3529V66.8403L75.2414 67.6471L77.5964 68.958C78.9275 69.7647 80.6682 69.2605 81.4874 67.9496C82.4089 66.6387 81.8969 64.9244 80.5658 64.2185Z" fill="#A4D4FF"/>
</g>
<mask id="mask0" mask-type="alpha" maskUnits="userSpaceOnUse" x="60" y="50" width="22" height="24">
<g clip-path="url(#clip1)">
<path d="M80.5658 64.2185L78.2108 62.9076L76.7773 62.1008L78.1084 61.2941H78.2108L80.5658 59.8824C81.8969 59.0756 82.4089 57.3613 81.5897 56.0504C80.7706 54.7395 79.0299 54.2353 77.6988 55.042L75.3438 56.3529L73.8079 57.1597V55.5462V55.4454V52.8235C73.8079 51.3109 72.4768 50 70.9409 50C69.5074 50 68.1763 51.3109 68.1763 52.8235V55.4454V57.1597L66.7428 56.3529L64.3878 54.9412C63.0567 54.1345 61.316 54.6387 60.4969 55.9496C59.6777 57.2605 60.1897 58.9748 61.5208 59.7815L63.8758 61.0924L65.3093 61.8992L63.7734 62.7059L61.4184 64.0168C60.0873 64.8235 59.5753 66.5378 60.3945 67.8487C61.2136 69.1597 62.9543 69.6639 64.2854 68.8571L66.6404 67.5462C66.6404 67.5462 66.6404 67.5462 66.7428 67.4454L68.0739 66.6387V68.3529V71.1765C68.0739 72.6891 69.405 74 70.9409 74C72.4768 74 73.8079 72.6891 73.8079 71.1765V68.4538V68.3529V66.8403L75.2414 67.6471L77.5964 68.958C78.9275 69.7647 80.6682 69.2605 81.4874 67.9496C82.4089 66.6387 81.8969 64.9244 80.5658 64.2185Z" fill="#A4D4FF"/>
</g>
</mask>
<g mask="url(#mask0)">
<path d="M70.8398 77.2269V47.479L79.0312 50.5042C80.2258 51.8488 82.8198 54.6387 83.6389 55.042C84.4581 55.4454 84.6628 59.916 84.6628 62.1009L82.615 71.1765L70.8398 77.2269Z" fill="url(#paint4_linear)"/>
</g>
<g filter="url(#filter3_d)">
<path d="M57.176 83.7731L54.1785 82.1345L52.354 81.1261L54.0482 80.1176H54.1785L57.176 78.3529C58.8702 77.3445 59.5218 75.2017 58.4792 73.563C57.4366 71.9244 55.2211 71.2941 53.5269 72.3025L50.5294 73.9412L48.5746 74.9496V72.9328V72.8067V69.5294C48.5746 67.6387 46.8804 66 44.9255 66C43.101 66 41.4067 67.6387 41.4067 69.5294V72.8067V74.9496L39.5822 73.9412L36.5847 72.1765C34.8905 71.1681 32.675 71.7983 31.6324 73.437C30.5898 75.0756 31.2414 77.2185 32.9357 78.2269L35.9331 79.8655L37.7577 80.874L35.8028 81.8824L32.8053 83.521C31.1111 84.5294 30.4595 86.6723 31.5021 88.3109C32.5447 89.9496 34.7602 90.5798 36.4544 89.5714L39.4519 87.9328C39.4519 87.9328 39.4519 87.9328 39.5822 87.8067L41.2764 86.7983V88.9412V92.4706C41.2764 94.3613 42.9706 96 44.9255 96C46.8804 96 48.5746 94.3613 48.5746 92.4706V89.0672V88.9412V87.0504L50.3991 88.0588L53.3966 89.6975C55.0908 90.7059 57.3063 90.0756 58.3489 88.437C59.5218 86.7983 58.8702 84.6555 57.176 83.7731Z" fill="#A4D4FF"/>
</g>
<mask id="mask1" mask-type="alpha" maskUnits="userSpaceOnUse" x="31" y="66" width="29" height="30">
<g clip-path="url(#clip2)">
<path d="M57.176 83.7731L54.1785 82.1345L52.354 81.1261L54.0482 80.1176H54.1785L57.176 78.3529C58.8702 77.3445 59.5218 75.2017 58.4792 73.563C57.4366 71.9244 55.2211 71.2941 53.5269 72.3025L50.5294 73.9412L48.5746 74.9496V72.9328V72.8067V69.5294C48.5746 67.6387 46.8804 66 44.9255 66C43.101 66 41.4067 67.6387 41.4067 69.5294V72.8067V74.9496L39.5822 73.9412L36.5847 72.1765C34.8905 71.1681 32.675 71.7983 31.6324 73.437C30.5898 75.0756 31.2414 77.2185 32.9357 78.2269L35.9331 79.8655L37.7577 80.874L35.8028 81.8824L32.8053 83.521C31.1111 84.5294 30.4595 86.6723 31.5021 88.3109C32.5447 89.9496 34.7602 90.5798 36.4544 89.5714L39.4519 87.9328C39.4519 87.9328 39.4519 87.9328 39.5822 87.8067L41.2764 86.7983V88.9412V92.4706C41.2764 94.3613 42.9706 96 44.9255 96C46.8804 96 48.5746 94.3613 48.5746 92.4706V89.0672V88.9412V87.0504L50.3991 88.0588L53.3966 89.6975C55.0908 90.7059 57.3063 90.0756 58.3489 88.437C59.5218 86.7983 58.8702 84.6555 57.176 83.7731Z" fill="#A4D4FF"/>
</g>
</mask>
<g mask="url(#mask1)">
<path d="M44.7988 100.033V62.8481L55.2248 66.6297C56.7452 68.3103 60.0468 71.7977 61.0894 72.3019C62.132 72.8061 62.3926 78.3944 62.3926 81.1255L59.7861 92.47L44.7988 100.033Z" fill="url(#paint5_linear)"/>
</g>
</g>
<defs>
<filter id="filter0_dd" x="-1" y="5" width="64" height="67" filterUnits="userSpaceOnUse" color-interpolation-filters="sRGB">
<feFlood flood-opacity="0" result="BackgroundImageFix"/>
<feColorMatrix in="SourceAlpha" type="matrix" values="0 0 0 0 0 0 0 0 0 0 0 0 0 0 0 0 0 0 127 0"/>
<feOffset dy="-1"/>
<feGaussianBlur stdDeviation="2"/>
<feColorMatrix type="matrix" values="0 0 0 0 0.996078 0 0 0 0 0.878431 0 0 0 0 0.411765 0 0 0 1 0"/>
<feBlend mode="normal" in2="BackgroundImageFix" result="effect1_dropShadow"/>
<feColorMatrix in="SourceAlpha" type="matrix" values="0 0 0 0 0 0 0 0 0 0 0 0 0 0 0 0 0 0 127 0"/>
<feOffset dy="2"/>
<feGaussianBlur stdDeviation="2"/>
<feColorMatrix type="matrix" values="0 0 0 0 0 0 0 0 0 0 0 0 0 0 0 0 0 0 0.25 0"/>
<feBlend mode="normal" in2="effect1_dropShadow" result="effect2_dropShadow"/>
<feBlend mode="normal" in="SourceGraphic" in2="effect2_dropShadow" result="shape"/>
</filter>
<filter id="filter1_dd" x="-1" y="17" width="108" height="70" filterUnits="userSpaceOnUse" color-interpolation-filters="sRGB">
<feFlood flood-opacity="0" result="BackgroundImageFix"/>
<feColorMatrix in="SourceAlpha" type="matrix" values="0 0 0 0 0 0 0 0 0 0 0 0 0 0 0 0 0 0 127 0"/>
<feOffset dx="2"/>
<feGaussianBlur stdDeviation="1"/>
<feColorMatrix type="matrix" values="0 0 0 0 0 0 0 0 0 0 0 0 0 0 0 0 0 0 0.2 0"/>
<feBlend mode="normal" in2="BackgroundImageFix" result="effect1_dropShadow"/>
<feColorMatrix in="SourceAlpha" type="matrix" values="0 0 0 0 0 0 0 0 0 0 0 0 0 0 0 0 0 0 127 0"/>
<feOffset dy="1"/>
<feGaussianBlur stdDeviation="2"/>
<feColorMatrix type="matrix" values="0 0 0 0 0 0 0 0 0 0 0 0 0 0 0 0 0 0 0.15 0"/>
<feBlend mode="normal" in2="effect1_dropShadow" result="effect2_dropShadow"/>
<feBlend mode="normal" in="SourceGraphic" in2="effect2_dropShadow" result="shape"/>
</filter>
<filter id="filter2_d" x="56" y="49" width="29.9842" height="32" filterUnits="userSpaceOnUse" color-interpolation-filters="sRGB">
<feFlood flood-opacity="0" result="BackgroundImageFix"/>
<feColorMatrix in="SourceAlpha" type="matrix" values="0 0 0 0 0 0 0 0 0 0 0 0 0 0 0 0 0 0 127 0"/>
<feOffset dy="3"/>
<feGaussianBlur stdDeviation="2"/>
<feColorMatrix type="matrix" values="0 0 0 0 0 0 0 0 0 0 0 0 0 0 0 0 0 0 0.25 0"/>
<feBlend mode="normal" in2="BackgroundImageFix" result="effect1_dropShadow"/>
<feBlend mode="normal" in="SourceGraphic" in2="effect1_dropShadow" result="shape"/>
</filter>
<filter id="filter3_d" x="27" y="65" width="35.9813" height="38" filterUnits="userSpaceOnUse" color-interpolation-filters="sRGB">
<feFlood flood-opacity="0" result="BackgroundImageFix"/>
<feColorMatrix in="SourceAlpha" type="matrix" values="0 0 0 0 0 0 0 0 0 0 0 0 0 0 0 0 0 0 127 0"/>
<feOffset dy="3"/>
<feGaussianBlur stdDeviation="2"/>
<feColorMatrix type="matrix" values="0 0 0 0 0 0 0 0 0 0 0 0 0 0 0 0 0 0 0.25 0"/>
<feBlend mode="normal" in2="BackgroundImageFix" result="effect1_dropShadow"/>
<feBlend mode="normal" in="SourceGraphic" in2="effect1_dropShadow" result="shape"/>
</filter>
<linearGradient id="paint0_linear" x1="10.875" y1="17.875" x2="58.9968" y2="61.2712" gradientUnits="userSpaceOnUse">
<stop offset="0.0653907" stop-color="#FFE975"/>
<stop offset="0.364583" stop-color="#FFB729"/>
<stop offset="0.595906" stop-color="#FF9900"/>
</linearGradient>
<linearGradient id="paint1_linear" x1="3" y1="20" x2="91.7363" y2="97.5818" gradientUnits="userSpaceOnUse">
<stop stop-color="white"/>
<stop offset="0.677083" stop-color="#D9E7EF"/>
<stop offset="0.96875" stop-color="#B1D1E4"/>
</linearGradient>
<linearGradient id="paint2_linear" x1="71.9013" y1="32.7646" x2="77.3564" y2="57.0856" gradientUnits="userSpaceOnUse">
<stop offset="0.265243" stop-color="#F4F8FA"/>
<stop offset="0.899425" stop-color="#F4F8FA" stop-opacity="0"/>
</linearGradient>
<linearGradient id="paint3_linear" x1="30.7889" y1="51.1946" x2="87.2579" y2="76.2506" gradientUnits="userSpaceOnUse">
<stop stop-color="#C9E2F0"/>
<stop offset="0.410663" stop-color="#DEEBF2"/>
<stop offset="1" stop-color="#DEEBF2"/>
<stop offset="1" stop-color="#BDE1F6"/>
</linearGradient>
<linearGradient id="paint4_linear" x1="71.2638" y1="68.1513" x2="82.5662" y2="67.9969" gradientUnits="userSpaceOnUse">
<stop offset="0.395833" stop-color="#6BB5F8"/>
<stop offset="1" stop-color="#2696EF"/>
</linearGradient>
<linearGradient id="paint5_linear" x1="45.3385" y1="88.6885" x2="59.7239" y2="88.4884" gradientUnits="userSpaceOnUse">
<stop offset="0.395833" stop-color="#6BB5F8"/>
<stop offset="1" stop-color="#2696EF"/>
</linearGradient>
<clipPath id="clip0">
<rect width="106" height="106" fill="white"/>
</clipPath>
<clipPath id="clip1">
<rect width="21.912" height="24" fill="white" transform="translate(60.0879 50)"/>
</clipPath>
<clipPath id="clip2">
<rect width="27.8894" height="30" fill="white" transform="translate(31.1113 66)"/>
</clipPath>
</defs>
</svg>
