<svg width="100" height="100" viewBox="0 0 99 81" xmlns="http://www.w3.org/2000/svg">
<g filter="url(#filter0_dd)">
<path d="M21.1173 25.5349C18.7584 25.5349 16.547 25.975 14.483 26.8553C12.4189 27.7356 10.6055 28.9239 9.04277 30.4204C7.48 31.9168 6.25633 33.7067 5.37174 35.79C4.48716 37.8733 4.03013 40.0887 4.00064 42.436C4.00064 44.7834 4.44293 46.9694 5.32751 48.994C6.2121 51.0187 7.42103 52.8085 8.95431 54.3637C10.4876 55.9188 12.301 57.1365 14.3945 58.0168C16.488 58.8971 18.6847 59.3372 20.9846 59.3372H71.9367C75.0622 59.3372 77.9961 58.7504 80.7383 57.5767C83.4805 56.403 85.8836 54.8038 87.9477 52.7792C90.0117 50.7546 91.6334 48.3632 92.8129 45.605C93.9923 42.8468 94.582 39.9126 94.582 36.8023C94.582 33.692 93.9923 30.7725 92.8129 28.0436C91.6334 25.3148 90.0264 22.9234 87.9919 20.8695C85.9573 18.8155 83.5542 17.2017 80.7825 16.028C78.0108 14.8543 75.0622 14.2674 71.9367 14.2674C70.5803 14.2674 69.2092 14.3995 67.8234 14.6636C66.6439 12.8443 65.2876 11.2158 63.7543 9.77807C62.221 8.3403 60.5256 7.10792 58.6679 6.08094C56.8103 5.05396 54.8642 4.29106 52.8297 3.79224C50.7951 3.29342 48.6721 3.02934 46.4607 3C43.1877 3 40.1064 3.57217 37.2168 4.71652C34.3271 5.86087 31.7471 7.43069 29.4767 9.42596C27.2062 11.4212 25.3633 13.8126 23.948 16.6002C22.5327 19.3877 21.5891 22.3659 21.1173 25.5349Z" fill="url(#paint0_linear)"/>
</g>
<circle cx="28.8519" cy="44.4245" r="12.7035" fill="url(#paint1_linear)"/>
<circle cx="50.9416" cy="27.8547" r="18.2267" fill="url(#paint2_linear)"/>
<circle cx="73.0384" cy="33.378" r="19.3314" fill="url(#paint3_linear)"/>
<circle cx="67.5158" cy="38.9012" r="18.2267" fill="url(#paint4_linear)"/>
<g filter="url(#filter1_d)">
<path d="M35.3431 43.339L28.5653 56.4743C28.2096 57.3275 28 58.2588 28 59.237C28 60.2152 28.2096 61.1465 28.5653 61.9997C28.9401 62.881 29.4769 63.681 30.1502 64.3467C30.8267 65.0124 31.6398 65.5374 32.5355 65.9062C33.4025 66.2593 34.349 66.4625 35.3431 66.4625C36.3404 66.4625 37.2869 66.2593 38.1508 65.9062C39.0496 65.5374 39.8595 65.0124 40.536 64.3467C41.2125 63.681 41.7493 62.881 42.1209 61.9997C42.4798 61.1465 42.6862 60.2152 42.6862 59.237C42.6862 58.2588 42.4798 57.3275 42.1209 56.4743L35.3431 43.339Z" fill="#A4D4FF"/>
<path d="M36.588 45.7526L30.5587 57.488C30.2391 58.2546 30.0508 59.0914 30.0508 59.9703C30.0508 60.8493 30.2391 61.6861 30.5587 62.4527C30.8955 63.2445 31.3778 63.9634 31.9828 64.5615C32.5906 65.1596 33.3212 65.6314 34.1259 65.9627C34.905 66.28 35.7554 66.4626 36.6487 66.4626C37.5447 66.4626 38.3952 66.28 39.1714 65.9627C39.979 65.6314 40.7067 65.1596 41.3145 64.5615C41.9224 63.9634 42.4047 63.2445 42.7386 62.4527C43.061 61.6861 43.2465 60.8493 43.2465 59.9703C43.2465 59.0914 43.061 58.2546 42.7386 57.488L36.588 45.7526Z" fill="url(#paint5_linear)"/>
</g>
<g filter="url(#filter2_d)">
<path d="M74.4339 61.7487L71.8649 60.2967L70.3012 59.4032L71.7532 58.5096H71.8649L74.4339 56.9459C75.8859 56.0524 76.4444 54.1536 75.5508 52.7016C74.6573 51.2496 72.7585 50.6911 71.3065 51.5847L68.7375 53.0367L67.0621 53.9302V52.1431V52.0314V49.1274C67.0621 47.452 65.6101 46 63.9347 46C62.371 46 60.919 47.452 60.919 49.1274V52.0314V53.9302L59.3553 53.0367L56.7864 51.473C55.3343 50.5794 53.4356 51.1379 52.542 52.5899C51.6485 54.0419 52.2069 55.9407 53.6589 56.8342L56.2279 58.2863L57.7916 59.1798L56.1162 60.0733L53.5472 61.5254C52.0952 62.4189 51.5368 64.3177 52.4303 65.7697C53.3239 67.2217 55.2226 67.7802 56.6747 66.8866L59.2436 65.4346C59.2436 65.4346 59.2436 65.4346 59.3553 65.3229L60.8073 64.4294V66.3282V69.4556C60.8073 71.131 62.2593 72.583 63.9347 72.583C65.6101 72.583 67.0621 71.131 67.0621 69.4556V66.4399V66.3282V64.6528L68.6258 65.5463L71.1948 66.9983C72.6468 67.8919 74.5456 67.3334 75.4391 65.8814C76.4444 64.4294 75.8859 62.5306 74.4339 61.7487Z" fill="url(#paint6_linear)"/>
</g>
<mask id="mask0" mask-type="alpha" maskUnits="userSpaceOnUse" x="52" y="46" width="24" height="27">
<g clip-path="url(#clip0)">
<path d="M74.4339 61.7487L71.8649 60.2967L70.3012 59.4032L71.7532 58.5096H71.8649L74.4339 56.9459C75.8859 56.0524 76.4444 54.1536 75.5508 52.7016C74.6573 51.2496 72.7585 50.6911 71.3065 51.5847L68.7375 53.0367L67.0621 53.9302V52.1431V52.0314V49.1274C67.0621 47.452 65.6101 46 63.9347 46C62.371 46 60.919 47.452 60.919 49.1274V52.0314V53.9302L59.3553 53.0367L56.7864 51.473C55.3343 50.5794 53.4356 51.1379 52.542 52.5899C51.6485 54.0419 52.2069 55.9407 53.6589 56.8342L56.2279 58.2863L57.7916 59.1798L56.1162 60.0733L53.5472 61.5254C52.0952 62.4189 51.5368 64.3177 52.4303 65.7697C53.3239 67.2217 55.2226 67.7802 56.6747 66.8866L59.2436 65.4346C59.2436 65.4346 59.2436 65.4346 59.3553 65.3229L60.8073 64.4294V66.3282V69.4556C60.8073 71.131 62.2593 72.583 63.9347 72.583C65.6101 72.583 67.0621 71.131 67.0621 69.4556V66.4399V66.3282V64.6528L68.6258 65.5463L71.1948 66.9983C72.6468 67.8919 74.5456 67.3334 75.4391 65.8814C76.4444 64.4294 75.8859 62.5306 74.4339 61.7487Z" fill="#61A7E6"/>
</g>
</mask>
<g mask="url(#mask0)">
<path d="M63.8203 76.1572V43.2077L72.7558 46.5585C74.0589 48.0478 76.8884 51.138 77.782 51.5847C78.6755 52.0315 78.8989 56.9832 78.8989 59.4033L76.665 69.4556L63.8203 76.1572Z" fill="url(#paint7_linear)"/>
</g>
<defs>
<filter id="filter0_dd" x="0" y="0" width="98.5814" height="64.3372" filterUnits="userSpaceOnUse" color-interpolation-filters="sRGB">
<feFlood flood-opacity="0" result="BackgroundImageFix"/>
<feColorMatrix in="SourceAlpha" type="matrix" values="0 0 0 0 0 0 0 0 0 0 0 0 0 0 0 0 0 0 127 0"/>
<feOffset dx="2"/>
<feGaussianBlur stdDeviation="1"/>
<feColorMatrix type="matrix" values="0 0 0 0 0 0 0 0 0 0 0 0 0 0 0 0 0 0 0.2 0"/>
<feBlend mode="normal" in2="BackgroundImageFix" result="effect1_dropShadow"/>
<feColorMatrix in="SourceAlpha" type="matrix" values="0 0 0 0 0 0 0 0 0 0 0 0 0 0 0 0 0 0 127 0"/>
<feOffset dy="1"/>
<feGaussianBlur stdDeviation="2"/>
<feColorMatrix type="matrix" values="0 0 0 0 0 0 0 0 0 0 0 0 0 0 0 0 0 0 0.15 0"/>
<feBlend mode="normal" in2="effect1_dropShadow" result="effect2_dropShadow"/>
<feBlend mode="normal" in="SourceGraphic" in2="effect2_dropShadow" result="shape"/>
</filter>
<filter id="filter1_d" x="24" y="43.339" width="23.2465" height="31.1236" filterUnits="userSpaceOnUse" color-interpolation-filters="sRGB">
<feFlood flood-opacity="0" result="BackgroundImageFix"/>
<feColorMatrix in="SourceAlpha" type="matrix" values="0 0 0 0 0 0 0 0 0 0 0 0 0 0 0 0 0 0 127 0"/>
<feOffset dy="4"/>
<feGaussianBlur stdDeviation="2"/>
<feColorMatrix type="matrix" values="0 0 0 0 0 0 0 0 0 0 0 0 0 0 0 0 0 0 0.25 0"/>
<feBlend mode="normal" in2="BackgroundImageFix" result="effect1_dropShadow"/>
<feBlend mode="normal" in="SourceGraphic" in2="effect1_dropShadow" result="shape"/>
</filter>
<filter id="filter2_d" x="48" y="46" width="31.9811" height="34.583" filterUnits="userSpaceOnUse" color-interpolation-filters="sRGB">
<feFlood flood-opacity="0" result="BackgroundImageFix"/>
<feColorMatrix in="SourceAlpha" type="matrix" values="0 0 0 0 0 0 0 0 0 0 0 0 0 0 0 0 0 0 127 0"/>
<feOffset dy="4"/>
<feGaussianBlur stdDeviation="2"/>
<feColorMatrix type="matrix" values="0 0 0 0 0 0 0 0 0 0 0 0 0 0 0 0 0 0 0.25 0"/>
<feBlend mode="normal" in2="BackgroundImageFix" result="effect1_dropShadow"/>
<feBlend mode="normal" in="SourceGraphic" in2="effect1_dropShadow" result="shape"/>
</filter>
<linearGradient id="paint0_linear" x1="4.00064" y1="3" x2="94.3327" y2="59.7343" gradientUnits="userSpaceOnUse">
<stop stop-color="white"/>
<stop offset="0.677083" stop-color="#D9E7EF"/>
<stop offset="0.96875" stop-color="#ADDDF9"/>
</linearGradient>
<linearGradient id="paint1_linear" x1="17" y1="42.5" x2="35.5" y2="46" gradientUnits="userSpaceOnUse">
<stop stop-color="#C9E2F0"/>
<stop offset="1" stop-color="#E2EDF3"/>
</linearGradient>
<linearGradient id="paint2_linear" x1="38.2841" y1="14.6909" x2="54.4857" y2="30.3862" gradientUnits="userSpaceOnUse">
<stop stop-color="#C3E1F1"/>
<stop offset="1" stop-color="#DFECF3" stop-opacity="0"/>
</linearGradient>
<linearGradient id="paint3_linear" x1="66.4105" y1="14.5989" x2="71.3815" y2="36.6919" gradientUnits="userSpaceOnUse">
<stop offset="0.265243" stop-color="#F4F8FA"/>
<stop offset="0.899425" stop-color="#F4F8FA" stop-opacity="0"/>
</linearGradient>
<linearGradient id="paint4_linear" x1="67.5158" y1="20.6745" x2="67.5158" y2="49.4535" gradientUnits="userSpaceOnUse">
<stop stop-color="#DFECF3"/>
<stop offset="1" stop-color="#DFECF3" stop-opacity="0"/>
</linearGradient>
<linearGradient id="paint5_linear" x1="28.5958" y1="60.3061" x2="43.9869" y2="53.1236" gradientUnits="userSpaceOnUse">
<stop offset="0.395833" stop-color="#6BB5F8"/>
<stop offset="1" stop-color="#2696EF"/>
</linearGradient>
<linearGradient id="paint6_linear" x1="55" y1="57.5" x2="64" y2="58" gradientUnits="userSpaceOnUse">
<stop stop-color="#8AC8FF"/>
<stop offset="0.679462" stop-color="#A4D4FF"/>
</linearGradient>
<linearGradient id="paint7_linear" x1="64.2828" y1="66.1048" x2="76.6119" y2="65.939" gradientUnits="userSpaceOnUse">
<stop offset="0.395833" stop-color="#6BB5F8"/>
<stop offset="1" stop-color="#2696EF"/>
</linearGradient>
<clipPath id="clip0">
<rect width="23.9023" height="26.583" fill="white" transform="translate(52.0977 46)"/>
</clipPath>
</defs>
</svg>
